<svg width="48" height="52" viewBox="0 0 48 52" fill="none" xmlns="http://www.w3.org/2000/svg">
<path d="M36.2669 11.9763C34.7842 11.3993 33.3592 11.4159 32.876 11.9748C32.4673 12.9413 32.2094 13.567 32.2094 13.567L32.5909 13.4649C32.5909 13.4649 36.3136 16.1502 38.1858 15.895C38.371 15.4334 38.5661 14.9073 38.7655 14.3392C38.8509 13.5906 37.7962 12.572 36.2669 11.9763Z" fill="#312F2D"/>
<g style="mix-blend-mode:overlay" opacity="0.3">
<path d="M37.2254 12.4382C37.0684 12.5929 36.5689 12.9593 35.4113 12.842C34.3012 12.7293 33.4034 12.4695 32.6177 12.5807C32.36 13.1944 32.2072 13.5679 32.2072 13.5679L32.5887 13.4658C32.5887 13.4658 36.3114 16.1512 38.1836 15.896C38.3687 15.4344 38.5638 14.9083 38.7632 14.3402C38.831 13.7607 38.2153 13.0194 37.2254 12.4382Z" fill="black"/>
</g>
<path d="M29.2807 13.9501C28.1703 13.5176 27.089 13.632 26.8658 14.206L25.8357 16.8551L29.857 18.4209L30.8871 15.7718C31.1074 15.2036 30.3873 14.3843 29.2807 13.9501Z" fill="#494444"/>
<path d="M35.7096 13.4082C33.8747 12.6935 32.1133 12.7158 31.5107 13.4092C31.0048 14.6044 30.6878 15.3774 30.6878 15.3774L31.1597 15.251C31.1597 15.251 35.7647 18.5731 38.0813 18.2574C38.3114 17.6886 38.5511 17.0362 38.8009 16.332C38.9059 15.4061 37.6017 14.1453 35.7096 13.4082Z" fill="#494444"/>
<g style="mix-blend-mode:overlay" opacity="0.2">
<path d="M34.6023 13.4136C34.6023 13.4136 32.7864 13.0488 32.2051 13.5688C31.6237 14.0888 32.6085 15.3277 34.1355 14.6126C35.6624 13.8975 34.6023 13.4136 34.6023 13.4136Z" fill="white"/>
</g>
<g style="mix-blend-mode:overlay" opacity="0.15">
<path d="M38.8011 16.332C38.8742 15.7109 38.313 14.9402 37.3659 14.2782C37.2166 14.4336 37.0543 14.576 36.8807 14.7039C36.634 14.8645 36.3674 14.9924 36.0877 15.0845C35.5322 15.2934 34.9475 15.4142 34.3547 15.4426C34.3013 15.4444 34.2491 15.4261 34.2086 15.3912C34.1681 15.3563 34.1422 15.3074 34.1361 15.2543C34.0122 15.2377 33.8889 15.2144 33.7666 15.1889C33.7278 15.1803 33.6923 15.1609 33.664 15.133C33.6358 15.1051 33.616 15.0698 33.607 15.0311C33.598 14.9924 33.6002 14.952 33.6132 14.9145C33.6262 14.877 33.6495 14.8439 33.6806 14.8192C33.6172 14.8097 33.5542 14.7991 33.4901 14.788C32.0189 14.5233 31.7997 15.0754 32.1854 15.936C33.6772 16.8901 36.4503 18.4787 38.0853 18.2558C38.3115 17.6886 38.5513 17.0362 38.8011 16.332Z" fill="black"/>
</g>
<path d="M38.0804 18.2577C38.4455 17.319 37.0864 15.9133 35.0449 15.118C33.0033 14.3227 31.0524 14.4391 30.6873 15.3779C30.3223 16.3166 31.6814 17.7223 33.7229 18.5176C35.7644 19.3128 37.7154 19.1965 38.0804 18.2577Z" fill="#252422"/>
<path d="M30.3769 14.6222L30.2281 15.0049C30.2281 15.0049 30.9601 16.1808 30.1942 16.9834C30.6655 17.5684 33.0305 18.0009 33.0305 18.0009L36.2207 17.7469L31.9069 15.5366L30.3769 14.6222Z" fill="#252422"/>
<path d="M30.9433 14.1471L32.4201 15.5271L36.8651 17.2585L36.2206 17.747L32.0033 16.1042L30.3768 14.6222L30.5251 14.2425C30.5404 14.203 30.5651 14.1678 30.5971 14.1401C30.6291 14.1123 30.6675 14.0929 30.7088 14.0835C30.7501 14.0741 30.793 14.0749 30.8339 14.086C30.8748 14.0971 30.9124 14.1181 30.9433 14.1471Z" fill="#494444"/>
<path d="M43.6201 20.3875C43.6201 20.3875 40.6328 16.8592 37.0589 16.6383C35.3802 16.5332 33.6951 16.614 32.0343 16.8792C31.8159 16.9118 31.6106 17.0037 31.4409 17.1451C31.2712 17.2864 31.1436 17.4717 31.072 17.6807L30.5956 18.9057C30.5956 18.9057 31.6116 19.8074 31.7534 19.8626C31.8953 19.9178 43.4057 23.1657 43.4057 23.1657L43.9094 21.8703C44.2002 21.1745 43.6201 20.3875 43.6201 20.3875Z" fill="#494444"/>
<path d="M31.0782 20.4469C30.1083 19.8532 30.4034 18.3733 31.5251 18.1891C33.1859 17.9239 34.871 17.8431 36.5496 17.9482C40.1243 18.1688 43.1108 21.6974 43.1108 21.6974C43.1108 21.6974 44.2352 23.2187 42.5766 23.9079C40.918 24.597 36.5059 21.2284 33.6759 21.1453C32.5966 21.113 31.7062 20.8308 31.0782 20.4469Z" fill="#252422"/>
<path d="M43.374 23.2261C43.5314 22.5708 43.0339 21.8952 43.0339 21.8952C43.0339 21.8952 40.047 18.3676 36.472 18.1463C34.7933 18.041 33.1082 18.1218 31.4475 18.3872C31.2469 18.4174 31.0572 18.4979 30.8962 18.6213C30.7352 18.7447 30.6081 18.907 30.5268 19.0928C30.5176 19.1133 27.0946 27.9142 27.0946 27.9142L40.9025 32.3445C40.9025 32.3445 43.3604 23.2841 43.374 23.2261Z" fill="#494444"/>
<g style="mix-blend-mode:overlay" opacity="0.15">
<path d="M31.22 18.7691L28.9021 24.73L30.4196 25.3211L32.7375 19.3602L31.22 18.7691Z" fill="black"/>
</g>
<path d="M29.4191 16.8495L28.6707 16.9771L28.4902 17.443C28.4902 17.443 29.4415 18.1187 29.6801 18.6055C29.6948 18.867 29.4109 19.5598 29.4109 19.5598L30.2861 20.4604L34.4758 19.591L29.4191 16.8495Z" fill="#252422"/>
<path d="M29.1664 15.7027L28.6708 16.9772L34.4759 19.5912L35.0591 18.0912L29.1664 15.7027Z" fill="#312F2D"/>
<path d="M25.4587 7.76496C23.9748 7.18758 22.5513 7.2054 22.0643 7.76594C21.6545 8.73198 21.3974 9.35737 21.3974 9.35737L21.7789 9.25527C21.7789 9.25527 25.5011 11.9417 27.3741 11.6862C27.5589 11.2238 27.7536 10.6988 27.953 10.1307C28.0422 9.3804 26.988 8.36067 25.4587 7.76496Z" fill="#312F2D"/>
<g style="mix-blend-mode:overlay" opacity="0.3">
<path d="M26.4161 8.22734C26.2601 8.3825 25.7607 8.74888 24.603 8.63158C23.4918 8.51846 22.5948 8.2583 21.8091 8.36947C21.551 8.98435 21.3986 9.35677 21.3986 9.35677L21.7801 9.25466C21.7801 9.25466 25.5024 11.9411 27.3753 11.6855C27.5602 11.2232 27.7548 10.6982 27.9542 10.1301C28.0224 9.54949 27.406 8.80858 26.4161 8.22734Z" fill="black"/>
</g>
<path d="M24.9015 9.1978C23.0658 8.48337 21.3052 8.50537 20.7026 9.19879C20.1956 10.3935 19.8797 11.1669 19.8797 11.1669L20.3516 11.0406C20.3516 11.0406 24.9555 14.3623 27.2721 14.0466C27.5011 13.4754 27.7378 12.8262 27.989 12.1232C28.0974 11.1949 26.7925 9.93441 24.9015 9.1978Z" fill="#494444"/>
<g style="mix-blend-mode:overlay" opacity="0.2">
<path d="M23.7952 9.20193C23.7952 9.20193 21.9796 8.83785 21.3986 9.35674C20.8177 9.87563 21.8013 11.116 23.329 10.4006C24.8567 9.6851 23.7952 9.20193 23.7952 9.20193Z" fill="white"/>
</g>
<g style="mix-blend-mode:overlay" opacity="0.15">
<path d="M27.9889 12.1234C28.0617 11.5016 27.5001 10.732 26.5535 10.0688C26.4039 10.2245 26.2414 10.3673 26.0678 10.4957C25.8214 10.6563 25.5549 10.7839 25.2753 10.8752C24.7205 11.0854 24.1362 11.2073 23.5435 11.2364C23.4902 11.2385 23.438 11.2204 23.3974 11.1857C23.3568 11.151 23.3308 11.1022 23.3246 11.0491C23.2014 11.0322 23.0782 11.0089 22.9558 10.9833C22.917 10.9747 22.8815 10.9552 22.8533 10.9272C22.8251 10.8993 22.8054 10.8639 22.7963 10.8252C22.7873 10.7865 22.7894 10.7461 22.8023 10.7085C22.8153 10.6709 22.8385 10.6378 22.8694 10.6129C22.806 10.6034 22.7426 10.5939 22.6744 10.5838C21.2039 10.3187 20.984 10.8712 21.3705 11.7314C22.8619 12.6866 25.6354 14.2741 27.2696 14.0515C27.5011 13.4756 27.7415 12.8248 27.9889 12.1234Z" fill="black"/>
</g>
<path d="M27.2716 14.0468C27.6366 13.108 26.2776 11.7023 24.236 10.9071C22.1945 10.1118 20.2436 10.2282 19.8785 11.1669C19.5135 12.1057 20.8725 13.5114 22.9141 14.3066C24.9556 15.1019 26.9065 14.9855 27.2716 14.0468Z" fill="#252422"/>
<path d="M28.0131 13.7017L27.864 14.0836C27.864 14.0836 26.5298 14.4559 26.5529 15.5653C25.8097 15.6778 23.7756 14.3961 23.7756 14.3961L21.5952 12.05L26.2677 13.3396L28.0131 13.7017Z" fill="#252422"/>
<path d="M27.9167 12.9682L25.896 12.9852L21.4511 11.2537L21.5953 12.05L25.8138 13.6932L28.0132 13.7016L28.1604 13.3215C28.1759 13.282 28.1814 13.2394 28.1766 13.1973C28.1717 13.1552 28.1566 13.1149 28.1325 13.08C28.1084 13.0451 28.0762 13.0167 28.0385 12.9972C28.0009 12.9777 27.9591 12.9678 27.9167 12.9682Z" fill="#494444"/>
<path d="M14.3602 8.98916C14.3602 8.98916 18.9438 8.41059 21.7319 10.6654C23.0399 11.7237 24.2271 12.9234 25.2718 14.2425C25.4104 14.4145 25.4991 14.6213 25.5283 14.8404C25.5574 15.0594 25.5258 15.2822 25.437 15.4844L24.9602 16.7105C24.9602 16.7105 23.6033 16.6872 23.4607 16.6323C23.3181 16.5774 12.644 11.1823 12.644 11.1823L13.1477 9.88692C13.4015 9.17729 14.3602 8.98916 14.3602 8.98916Z" fill="#494444"/>
<path d="M23.5608 17.519C24.6758 17.7381 25.4583 16.4468 24.7564 15.5529C23.7113 14.2343 22.5237 13.0351 21.2154 11.9773C18.4345 9.72025 13.8518 10.3011 13.8518 10.3011C13.8518 10.3011 11.9958 10.6614 12.7521 12.2925C13.5085 13.9236 19.0362 14.4251 21.1777 16.2786C21.9931 16.9831 22.8416 17.3794 23.5608 17.519Z" fill="#252422"/>
<path d="M12.6247 11.2483C12.9506 10.6592 13.7743 10.4976 13.7743 10.4976C13.7743 10.4976 18.3579 9.91907 21.1415 12.174C22.449 13.2325 23.636 14.4319 24.6811 15.7503C24.8084 15.9085 24.8937 16.0963 24.9291 16.2962C24.9644 16.4962 24.9487 16.7018 24.8832 16.894C24.8762 16.9153 21.4544 25.7167 21.4544 25.7167L8.28744 19.6399C8.28744 19.6399 12.5956 11.3003 12.6247 11.2483Z" fill="#494444"/>
<g style="mix-blend-mode:overlay" opacity="0.3">
<path d="M25.2675 14.2434C24.2242 12.9242 23.0384 11.7243 21.7318 10.6654C21.2731 10.2994 20.768 9.99577 20.2296 9.76242C19.9184 11.388 19.244 14.125 17.9008 16.7312C16.9333 18.6152 15.4438 19.9831 14.124 20.9125C15.0685 21.1955 16.0054 21.6251 16.8049 22.2727C18.2079 23.4093 19.4812 24.6973 20.6018 26.1133C20.7405 26.2852 20.8328 26.4898 20.87 26.7076C20.9072 26.9254 20.8881 27.149 20.8144 27.3572L20.9119 27.1065L21.3262 26.0409C21.3377 26.0131 21.3491 25.9852 21.3592 25.9562L21.4237 25.7902L21.4536 25.7151C21.4536 25.7151 24.8745 16.9178 24.8824 16.8924C24.8904 16.867 24.8908 16.8659 24.8941 16.8526C24.9173 16.8061 24.9377 16.7582 24.955 16.7092L25.4317 15.4831C25.5203 15.2812 25.5518 15.0589 25.5228 14.8403C25.4939 14.6218 25.4056 14.4153 25.2675 14.2434Z" fill="black"/>
</g>
<g style="mix-blend-mode:overlay" opacity="0.15">
<path d="M23.5094 15.6653L21.1914 21.6262L22.7089 22.2173L25.0268 16.2564L23.5094 15.6653Z" fill="black"/>
</g>
<path d="M27.2144 15.9899L27.6793 16.5914L27.4984 17.0566C27.4984 17.0566 26.341 16.9109 25.8364 17.1081C25.6489 17.2909 25.3895 17.9939 25.3895 17.9939L24.137 18.065L21.6353 14.5903L27.2144 15.9899Z" fill="#252422"/>
<path d="M28.1752 15.3168L27.6796 16.5913L21.6364 14.5899L22.2197 13.09L28.1752 15.3168Z" fill="#2D2B2A"/>
<path d="M28.0104 17.2038C26.0557 16.4423 24.1802 16.5741 23.8196 17.4966L22.1737 21.7292L29.2095 24.6079L30.9007 20.2588C31.2582 19.3312 29.9659 17.9668 28.0104 17.2038Z" fill="#494444"/>
<g style="mix-blend-mode:overlay" opacity="0.3">
<path d="M30.9003 20.2569C31.2595 19.3332 29.9661 17.9664 28.0098 17.2057C27.8999 17.1628 27.8001 17.1265 27.695 17.0906C27.6713 18.3774 27.4569 20.7225 26.3551 22.9309C26.2843 23.0718 26.2221 23.2169 26.169 23.3655L29.2098 24.6076L30.9003 20.2569Z" fill="black"/>
</g>
<g style="mix-blend-mode:overlay" opacity="0.15">
<path d="M30.9001 20.257C31.0881 19.775 30.8246 19.1715 30.252 18.5965L28.0925 24.1497L29.205 24.6078L30.9001 20.257Z" fill="black"/>
</g>
<path d="M29.2094 24.6061C29.5688 23.682 28.2754 22.3155 26.3206 21.554C24.3658 20.7926 22.4898 20.9245 22.1304 21.8486C21.7711 22.7728 23.0644 24.1393 25.0192 24.9007C26.974 25.6622 28.8501 25.5303 29.2094 24.6061Z" fill="#252422"/>
<path d="M25.8659 22.7228C24.7555 22.2903 23.6895 22.3651 23.4851 22.8907L22.5444 25.31L26.566 26.8766L27.5051 24.4535C27.7104 23.932 26.9763 23.1554 25.8659 22.7228Z" fill="#494444"/>
<path d="M24.9396 25.1041C23.8292 24.6715 22.764 24.746 22.5596 25.2717C22.3552 25.7973 23.0898 26.5729 24.2002 27.0054C25.3106 27.4379 26.3765 27.3631 26.5809 26.8375C26.7853 26.3118 26.0517 25.5404 24.9396 25.1041Z" fill="#252422"/>
<path d="M26.6066 24.0822L25.8582 24.2098L25.6773 24.6749C25.6773 24.6749 26.6286 25.3506 26.8676 25.8382C26.8823 26.0997 26.5984 26.7925 26.5984 26.7925L27.1829 27.7407C27.1829 27.7407 31.0056 27.4146 31.1015 27.4691C31.1975 27.5235 31.6633 26.8237 31.6633 26.8237L26.6066 24.0822Z" fill="#252422"/>
<path d="M26.3537 22.9349L25.8581 24.2094L31.6631 26.8233L32.2464 25.3234L26.3537 22.9349Z" fill="#312F2D"/>
<path d="M40.542 30.8947C40.542 30.8947 37.3347 27.1084 33.4943 26.8679C31.6913 26.755 29.8815 26.8418 28.0977 27.1266C27.863 27.1622 27.6427 27.2615 27.4606 27.4138C27.2785 27.566 27.1417 27.7653 27.0651 27.99L26.5519 29.3096C26.5519 29.3096 27.6427 30.2777 27.7947 30.3376C27.9468 30.3974 40.3104 33.8846 40.3104 33.8846L40.8513 32.4935C41.1644 31.7405 40.542 30.8947 40.542 30.8947Z" fill="#252422"/>
<path d="M40.4444 31.1458C40.4444 31.1458 37.2372 27.3596 33.3968 27.1191C31.5938 27.006 29.7839 27.0928 28.0001 27.3778C27.7656 27.4126 27.5452 27.5113 27.363 27.6629C27.1808 27.8146 27.0438 28.0134 26.9669 28.2378L26.4538 29.5574C26.4538 29.5574 27.5445 30.5255 27.6974 30.585C27.8502 30.6445 40.2123 34.1323 40.2123 34.1323L40.7532 32.7413C41.0665 31.9909 40.4444 31.1458 40.4444 31.1458Z" fill="#494444"/>
<path d="M26.9727 31.2087C25.9313 30.5726 26.2486 28.9817 27.4551 28.7831C29.2389 28.4983 31.0487 28.4115 32.8518 28.5244C36.6916 28.7615 39.8994 32.5512 39.8994 32.5512C39.8994 32.5512 41.101 34.188 39.3241 34.9292C37.5471 35.6703 32.804 32.0525 29.7637 31.9616C28.6032 31.9249 27.6471 31.6215 26.9727 31.2087Z" fill="#252422"/>
<g style="mix-blend-mode:overlay" opacity="0.3">
<path d="M40.9022 32.3447C40.9022 32.3447 43.2023 23.8579 43.3647 23.2595C43.3804 23.2289 43.3942 23.1982 43.4065 23.1682L43.9103 21.8728C44.2001 21.1747 43.6215 20.3871 43.6215 20.3871C43.6215 20.3871 41.5742 17.9688 38.8414 17.0107C38.8522 18.6611 38.5087 20.2944 37.8341 21.8003C36.671 24.4267 34.8319 27.1133 32.377 28.5008C32.5328 28.5071 32.6896 28.5156 32.8498 28.5254C36.6896 28.7626 39.8974 32.5522 39.8974 32.5522C39.8974 32.5522 40.5107 33.3856 40.2148 34.132L40.3123 33.8813L40.7557 32.7409L40.8532 32.4902C40.8727 32.4428 40.889 32.3942 40.9022 32.3447Z" fill="black"/>
</g>
<path d="M39.2727 34.7202C39.6726 33.692 38.1838 32.1522 35.9476 31.2812C33.7114 30.4101 31.5732 30.537 31.1737 31.566C28.2432 35.3405 26.343 39.374 26.343 39.374C26.343 39.374 31.888 41.2782 37.5488 43.8708C38.737 40.7337 39.2727 34.7202 39.2727 34.7202Z" fill="#2D2B2A"/>
<path d="M32.8042 39.371C29.9809 38.2712 27.2725 38.3052 26.346 39.3726C25.5676 41.2099 25.08 42.3989 25.08 42.3989L25.8063 42.2044C25.8063 42.2044 32.888 47.3138 36.4484 46.8241C36.8001 45.9456 37.171 44.9448 37.5501 43.8655C37.7157 42.4434 35.7099 40.5047 32.8042 39.371Z" fill="#494444"/>
<g style="mix-blend-mode:overlay" opacity="0.3">
<path d="M36.4477 46.8293C36.7994 45.9508 37.1703 44.9499 37.5494 43.8706C38.7377 40.7336 39.2734 34.72 39.2734 34.72C39.6582 33.7303 38.304 32.2791 36.2213 31.3925C36.4428 32.153 36.6525 33.5604 36.2074 35.6834C35.4898 39.0848 34.097 41.5761 30.8267 42.7897C29.9289 43.1225 29.8452 43.9187 30.2134 44.8991C31.0856 45.3767 31.9847 45.8033 32.9062 46.1766C34.2045 46.6696 35.461 46.9641 36.4477 46.8293Z" fill="black"/>
</g>
<path d="M36.4469 46.8298C37.0083 45.386 34.9181 43.2241 31.7783 42.001C28.6385 40.778 25.6381 40.9569 25.0766 42.4007C24.5152 43.8445 26.6054 46.0064 29.7452 47.2294C32.885 48.4525 35.8854 48.2736 36.4469 46.8298Z" fill="#252422"/>
<path d="M35.5101 46.5191C35.9259 45.4498 34.1287 43.7516 31.496 42.726C28.8632 41.7005 26.3919 41.736 25.976 42.8053C25.5602 43.8746 27.3574 45.5728 29.9902 46.5984C32.6229 47.6239 35.0943 47.5884 35.5101 46.5191Z" fill="#494444"/>
<path d="M30.3498 45.675C32.5904 46.5478 34.7135 46.6517 35.5528 46.0037C35.3723 44.959 33.7376 43.5992 31.4967 42.7257C29.2557 41.8521 27.1334 41.7497 26.2936 42.3969C26.4745 43.4424 28.1092 44.8022 30.3498 45.675Z" fill="#BBBBBB"/>
<g style="mix-blend-mode:overlay" opacity="0.3">
<path d="M26.7488 43.2934C27.1645 42.2246 29.6346 42.1896 32.2712 43.2129C32.8179 43.4247 33.3484 43.6762 33.8585 43.9654C33.1243 43.459 32.3323 43.0421 31.4994 42.7235C29.2588 41.8508 27.136 41.7475 26.2963 42.3948C26.3455 42.6786 26.5025 42.986 26.7489 43.2998L26.7488 43.2934Z" fill="black"/>
</g>
<path d="M25.0073 42.5669C25.2146 42.0437 25.7062 41.6698 26.239 41.4911C26.7718 41.3125 27.3468 41.3022 27.9093 41.332C29.9851 41.4459 32.0042 42.0525 33.7996 43.1017C34.2316 43.3548 34.6325 43.6471 35.0445 43.9291C34.7849 43.5646 34.2766 43.252 33.9046 42.9944C33.4944 42.7059 33.0642 42.4469 32.6172 42.2194C31.7224 41.7628 30.768 41.4343 29.7818 41.2435C29.1612 41.1232 28.5308 41.0601 27.8986 41.055C27.3113 41.0516 26.711 41.0995 26.1711 41.3305C25.6312 41.5615 25.1603 42.001 25.0073 42.5669Z" fill="#8A8080"/>
<g style="mix-blend-mode:overlay" opacity="0.3">
<path d="M30.1601 42.8894C30.1601 42.8894 28.4008 42.527 27.6968 42.9441C26.9928 43.3613 27.77 44.0743 28.8362 44.344C29.9023 44.6136 33.0736 43.9003 30.1601 42.8894Z" fill="white"/>
</g>
<g style="mix-blend-mode:overlay" opacity="0.3">
<path d="M33.1023 44.5979C33.1023 44.5979 32.3059 44.4339 31.9862 44.6227C31.6665 44.8116 32.02 45.1348 32.5026 45.2563C32.9851 45.3778 34.4217 45.0561 33.1023 44.5979Z" fill="white"/>
</g>
<path d="M26.7179 29.1618C26.7516 29.0984 26.8056 29.0483 26.8713 29.0196C26.9352 28.986 27.0021 28.9584 27.0711 28.9372C27.2119 28.8934 27.3559 28.8606 27.5017 28.839C27.8056 28.7954 28.1115 28.7677 28.4183 28.756L29.3822 28.7187L30.3761 28.6728C31.0473 28.6412 31.6985 28.6156 32.3271 28.6218C32.9332 28.6255 33.5386 28.6631 34.1405 28.7343C33.556 28.557 32.9549 28.4397 32.3467 28.3844C31.6886 28.3265 31.0273 28.3154 30.3677 28.3511C30.0293 28.3668 29.696 28.3921 29.369 28.4192C29.0419 28.4463 28.7168 28.4798 28.3974 28.52C28.0861 28.5582 27.7782 28.6198 27.4762 28.7044C27.3285 28.7457 27.1846 28.7998 27.0462 28.8661C26.9783 28.8994 26.9137 28.9391 26.8533 28.9847C26.8236 29.0073 26.7964 29.033 26.7722 29.0613C26.7447 29.0888 26.7258 29.1237 26.7179 29.1618Z" fill="#625D5D"/>
<path d="M24.4019 23.2228L24.8665 23.8235L24.6859 24.2894C24.6859 24.2894 23.5285 24.1437 23.0236 24.3402C22.8364 24.5237 22.577 25.2267 22.577 25.2267L21.5079 25.5327C21.5079 25.5327 18.9101 22.7056 18.8037 22.6812C18.6973 22.6569 18.8257 21.8256 18.8257 21.8256L24.4019 23.2228Z" fill="#252422"/>
<path d="M25.3622 22.5487L24.8666 23.8232L18.8236 21.8226L19.4069 20.3226L25.3622 22.5487Z" fill="#2D2B2A"/>
<path d="M9.53211 18.8154C9.53211 18.8154 14.4528 18.1953 17.4452 20.6164C18.8506 21.7541 20.1262 23.0436 21.2487 24.4614C21.3975 24.6463 21.4928 24.8684 21.5241 25.1037C21.5554 25.3389 21.5215 25.5783 21.4262 25.7955L20.913 27.1151C20.913 27.1151 19.4546 27.0908 19.3025 27.031C19.1505 26.9711 7.68433 21.1776 7.68433 21.1776L8.2245 19.7869C8.50214 19.0175 9.53211 18.8154 9.53211 18.8154Z" fill="#252422"/>
<path d="M9.43442 19.0661C9.43442 19.0661 14.3548 18.4453 17.3475 20.8672C18.7527 22.0036 20.0278 23.2921 21.1496 24.7091C21.2987 24.8939 21.394 25.116 21.4253 25.3513C21.4566 25.5866 21.4227 25.826 21.3271 26.0432L20.814 27.3628C20.814 27.3628 19.3563 27.3382 19.2035 27.2787C19.0507 27.2191 7.58531 21.4253 7.58531 21.4253L8.12623 20.0343C8.40412 19.2675 9.43442 19.0661 9.43442 19.0661Z" fill="#494444"/>
<g style="mix-blend-mode:overlay" opacity="0.3">
<path d="M21.2486 24.4616C20.1263 23.0449 18.8512 21.7565 17.4465 20.6196C16.9225 20.2016 16.3426 19.8591 15.7236 19.6022C15.2228 20.0791 14.6867 20.5174 14.1199 20.9136C15.0643 21.1966 16.0012 21.6261 16.8007 22.2738C18.2051 23.4098 19.4798 24.6975 20.6018 26.1134C20.7405 26.2854 20.8328 26.49 20.87 26.7078C20.9072 26.9255 20.8881 27.1491 20.8144 27.3573L20.9119 27.1066L21.3262 26.041C21.3377 26.0132 21.3491 25.9854 21.3591 25.9564L21.4237 25.7903C21.5183 25.574 21.552 25.3358 21.5212 25.1016C21.4903 24.8674 21.396 24.6461 21.2486 24.4616Z" fill="black"/>
</g>
<path d="M19.3191 28.2271C20.5158 28.4621 21.3568 27.0759 20.6019 26.1133C19.4797 24.6965 18.2046 23.4081 16.7998 22.2713C13.8101 19.8481 8.88665 20.4703 8.88665 20.4703C8.88665 20.4703 6.89429 20.8604 7.70576 22.6086C8.51724 24.3568 14.453 24.8995 16.7551 26.8902C17.63 27.6533 18.5438 28.0738 19.3191 28.2271Z" fill="#252422"/>
<path d="M7.88537 22.4969C8.28519 21.4687 10.4222 21.3414 12.6584 22.2125C14.8946 23.0836 16.3834 24.6233 15.9836 25.6515C15.5941 30.4165 14.2256 34.7888 14.2256 34.7888C14.2256 34.7888 8.89711 32.3264 2.97424 30.406C4.21684 27.287 7.88537 22.4969 7.88537 22.4969Z" fill="#2D2B2A"/>
<path d="M9.47599 30.286C6.65305 29.187 3.94466 29.221 3.01815 30.2884C2.23975 32.1257 1.75209 33.3147 1.75209 33.3147L2.47839 33.1202C2.47839 33.1202 9.56015 38.2296 13.1222 37.7437C13.4739 36.8652 13.8447 35.8644 14.2239 34.7851C14.3909 33.3579 12.3843 31.4195 9.47599 30.286Z" fill="#494444"/>
<g style="mix-blend-mode:overlay" opacity="0.3">
<path d="M15.9818 25.6484C16.3812 24.6213 14.8972 23.084 12.6662 22.2125C12.8885 22.9708 13.1 24.3802 12.6515 26.5037C11.9347 29.9048 10.5411 32.3964 7.27079 33.61C6.3733 33.9436 6.28933 34.739 6.65753 35.7194C8.83312 36.8961 11.392 37.979 13.1217 37.7436C13.4734 36.8651 13.8443 35.8642 14.2235 34.7849C14.2235 34.7849 15.592 30.4127 15.9818 25.6484Z" fill="black"/>
</g>
<path d="M13.1219 37.7434C13.6833 36.2996 11.5932 34.1377 8.45335 32.9146C5.31354 31.6915 2.3131 31.8705 1.75167 33.3143C1.19024 34.758 3.28042 36.92 6.42023 38.143C9.56004 39.3661 12.5605 39.1872 13.1219 37.7434Z" fill="#252422"/>
<path d="M12.1851 37.4332C12.6009 36.3639 10.8037 34.6657 8.171 33.6401C5.53825 32.6146 3.0669 32.65 2.65109 33.7194C2.23527 34.7887 4.03246 36.4869 6.66521 37.5124C9.29796 38.538 11.7693 38.5025 12.1851 37.4332Z" fill="#494444"/>
<path d="M7.02484 36.589C9.26544 37.4618 11.3885 37.5658 12.2279 36.9177C12.0424 35.8743 10.4123 34.5125 8.17171 33.6397C5.93111 32.7669 3.80839 32.6637 2.96867 33.311C3.14953 34.3564 4.78425 35.7162 7.02484 36.589Z" fill="#BBBBBB"/>
<g style="mix-blend-mode:overlay" opacity="0.3">
<path d="M3.4239 34.2075C3.83953 33.1386 6.30968 33.1037 8.94625 34.1269C9.49307 34.3385 10.0236 34.59 10.5335 34.8795C9.79934 34.3731 9.00736 33.9562 8.17441 33.6376C5.93382 32.7648 3.81109 32.6616 2.97137 33.3089C3.02053 33.5926 3.17758 33.9001 3.42396 34.2139L3.4239 34.2075Z" fill="black"/>
</g>
<path d="M1.67978 33.4822C1.88595 32.9586 2.37866 32.5851 2.91113 32.4057C3.4436 32.2263 4.01921 32.2175 4.58138 32.2466C6.65823 32.3603 8.6783 32.9675 10.4742 34.0178C10.907 34.2706 11.308 34.5629 11.7199 34.8449C11.4595 34.4808 10.9517 34.1671 10.58 33.9102C10.1696 33.622 9.7394 33.363 9.29262 33.1353C8.39766 32.6785 7.44291 32.3501 6.4565 32.1596C5.83785 32.0401 5.20956 31.9776 4.57954 31.973C3.99186 31.9688 3.39187 32.0175 2.85201 32.2484C2.31215 32.4794 1.83504 32.9153 1.67978 33.4822Z" fill="#8A8080"/>
<g style="mix-blend-mode:overlay" opacity="0.3">
<path d="M6.83626 33.8064C6.83626 33.8064 5.07778 33.4437 4.37375 33.8608C3.66973 34.2779 4.44623 34.9913 5.51278 35.2599C6.57934 35.5284 9.74848 34.8142 6.83626 33.8064Z" fill="white"/>
</g>
<g style="mix-blend-mode:overlay" opacity="0.3">
<path d="M9.77717 35.512C9.77717 35.512 8.97658 35.3489 8.66106 35.5369C8.34555 35.7248 8.69454 36.0482 9.17742 36.1704C9.66031 36.2927 11.0966 35.9702 9.77717 35.512Z" fill="white"/>
</g>
<g style="mix-blend-mode:overlay" opacity="0.2">
<path d="M24.7518 17.2397C24.2416 17.8725 23.8399 18.5858 23.5633 19.3503C23.0766 20.6638 24.9516 21.2314 25.5034 19.5128C26.0552 17.7943 25.6726 16.4081 24.7518 17.2397Z" fill="white"/>
</g>
<g style="mix-blend-mode:overlay" opacity="0.15">
<path d="M11.6081 16.3717C10.5559 18.293 9.74694 19.5986 9.18155 20.4471C10.0343 20.3826 10.891 20.3901 11.7426 20.4697C12.9243 18.6273 16.0264 13.4919 16.9807 8.9836C16.313 8.92394 15.642 8.9107 14.9725 8.94397C14.4643 10.2997 13.2644 13.348 11.6081 16.3717Z" fill="white"/>
</g>
<g style="mix-blend-mode:overlay" opacity="0.15">
<path d="M40.661 27.6863C40.1387 29.814 39.8547 31.3273 39.697 32.332C39.1117 31.7079 38.4753 31.1339 37.7944 30.6159C38.168 28.4588 39.3509 22.5764 41.6923 18.6077C42.2247 19.0157 42.728 19.4603 43.1985 19.9384C42.6577 21.2801 41.4841 24.3406 40.661 27.6863Z" fill="black"/>
</g>
<path d="M16.8045 22.1251C15.7328 21.3525 14.5133 20.8096 13.2223 20.5303C12.4335 20.3463 11.627 20.2491 10.8171 20.2404C10.0108 20.2385 9.29733 20.4683 8.51489 20.5662C11.7441 20.1746 15.005 20.9841 17.6776 22.8406C17.4008 22.5852 17.1093 22.3463 16.8045 22.1251Z" fill="#625D5D"/>
<path d="M22.5982 25.1444C22.9315 24.9222 23.3544 24.8812 23.7549 24.9093C24.1554 24.9374 24.5489 25.0242 24.9495 25.034C24.5022 24.7211 23.9234 24.5134 23.3716 24.6074C23.0496 24.6624 22.7367 24.8501 22.5982 25.1444Z" fill="#625D5D"/>
<path d="M23.1379 21.1389C23.4388 21.1294 23.74 21.1443 24.0385 21.1833C24.3467 21.2192 24.663 21.2734 24.985 21.3342C25.6304 21.4634 26.2413 21.6178 26.8131 21.762C26.2818 21.3971 25.6821 21.1434 25.0503 21.0165C24.7203 20.9514 24.3836 20.9268 24.0477 20.9431C23.7354 20.9557 23.4277 21.022 23.1379 21.1389Z" fill="#625D5D"/>
<g style="mix-blend-mode:overlay" opacity="0.3">
<g style="mix-blend-mode:overlay" opacity="0.3">
<path d="M24.2199 17.3909C23.9044 17.9252 23.6375 18.4867 23.4225 19.0689C23.2054 19.6484 23.0414 20.2466 22.9327 20.8559C23.247 20.3217 23.5127 19.7603 23.7267 19.1785C23.945 18.5989 24.1101 18.0005 24.2199 17.3909Z" fill="black"/>
</g>
</g>
<g style="mix-blend-mode:overlay" opacity="0.3">
<g style="mix-blend-mode:overlay" opacity="0.3">
<path d="M24.8192 17.1636C24.5045 17.6974 24.2382 18.2584 24.0237 18.8398C23.8074 19.4196 23.6435 20.0177 23.5339 20.6269C23.8486 20.0933 24.1146 19.5324 24.3286 18.951C24.5452 18.3711 24.7093 17.7729 24.8192 17.1636Z" fill="black"/>
</g>
</g>
<g style="mix-blend-mode:overlay" opacity="0.3">
<g style="mix-blend-mode:overlay" opacity="0.3">
<path d="M25.4703 17.0961C25.156 17.6299 24.8901 18.1908 24.6756 18.772C24.4593 19.3518 24.2953 19.9499 24.1857 20.559C24.5002 20.0253 24.7662 19.4644 24.9805 18.8831C25.1971 18.3034 25.361 17.7053 25.4703 17.0961Z" fill="black"/>
</g>
</g>
<g style="mix-blend-mode:overlay" opacity="0.3">
<g style="mix-blend-mode:overlay" opacity="0.3">
<path d="M26.5477 17.2085C26.2328 17.7425 25.9667 18.3037 25.7526 18.8855C25.5361 19.4653 25.3721 20.0634 25.2627 20.6726C25.5776 20.1388 25.8435 19.5777 26.0571 18.9959C26.2742 18.4162 26.4384 17.8179 26.5477 17.2085Z" fill="black"/>
</g>
</g>
<g style="mix-blend-mode:overlay" opacity="0.3">
<g style="mix-blend-mode:overlay" opacity="0.3">
<path d="M27.1101 17.2721C26.7959 17.8069 26.5304 18.3688 26.3167 18.9511C26.0991 19.5313 25.9338 20.13 25.8231 20.7398C26.1384 20.2063 26.4046 19.6453 26.6186 19.0636C26.8362 18.4825 27.0007 17.8829 27.1101 17.2721Z" fill="black"/>
</g>
</g>
<g style="mix-blend-mode:overlay" opacity="0.3">
<g style="mix-blend-mode:overlay" opacity="0.3">
<path d="M27.6178 17.4675C27.3043 18.0021 27.0397 18.5639 26.8271 19.1462C26.6089 19.7263 26.4437 20.3249 26.3334 20.9349C26.6483 20.401 26.9145 19.8397 27.1286 19.2579C27.3454 18.6771 27.5091 18.0779 27.6178 17.4675Z" fill="black"/>
</g>
</g>
<g style="mix-blend-mode:overlay" opacity="0.3">
<g style="mix-blend-mode:overlay" opacity="0.3">
<path d="M30.6799 19.9074C30.5519 20.5139 30.3692 21.1075 30.134 21.6808C29.9017 22.2544 29.6185 22.8061 29.2879 23.3291C29.4164 22.723 29.5992 22.1297 29.8342 21.5565C30.0663 20.9826 30.3493 20.4307 30.6799 19.9074Z" fill="black"/>
</g>
</g>
<g style="mix-blend-mode:overlay" opacity="0.3">
<g style="mix-blend-mode:overlay" opacity="0.3">
<path d="M30.3923 19.3341C30.2636 19.9404 30.0805 20.5338 29.8453 21.1071C29.6142 21.6822 29.3316 22.2351 29.0009 22.7592C29.13 22.1524 29.3134 21.5585 29.5492 20.9848C29.7798 20.4102 30.062 19.8577 30.3923 19.3341Z" fill="black"/>
</g>
</g>
<g style="mix-blend-mode:overlay" opacity="0.3">
<g style="mix-blend-mode:overlay" opacity="0.3">
<path d="M29.9568 18.8412C29.8283 19.4475 29.6452 20.0409 29.4097 20.6142C29.1779 21.188 28.8948 21.7397 28.5637 22.2625C28.6923 21.6559 28.8752 21.0623 29.1104 20.4887C29.3426 19.9152 29.6259 19.3638 29.9568 18.8412Z" fill="black"/>
</g>
</g>
<g style="mix-blend-mode:overlay" opacity="0.3">
<g style="mix-blend-mode:overlay" opacity="0.3">
<path d="M29.5424 18.5351C29.414 19.1412 29.2312 19.7345 28.9962 20.3078C28.7639 20.8814 28.4808 21.433 28.1501 21.9561C28.2783 21.3498 28.4611 20.7565 28.6964 20.1834C28.9289 19.6099 29.2121 19.0583 29.5424 18.5351Z" fill="black"/>
</g>
</g>
<g style="mix-blend-mode:overlay" opacity="0.3">
<g style="mix-blend-mode:overlay" opacity="0.3">
<path d="M29.0859 18.1994C28.9575 18.8056 28.7747 19.3989 28.5396 19.9721C28.3077 20.5458 28.0245 21.0975 27.6936 21.6204C27.8226 21.0144 28.0054 20.4211 28.2398 19.8477C28.4721 19.2741 28.7552 18.7224 29.0859 18.1994Z" fill="black"/>
</g>
</g>
<g style="mix-blend-mode:overlay" opacity="0.3">
<g style="mix-blend-mode:overlay" opacity="0.3">
<path d="M28.6318 17.863C28.5038 18.4694 28.3211 19.063 28.0859 19.6364C27.8539 20.2101 27.5707 20.7618 27.2398 21.2847C27.3686 20.6786 27.5514 20.0854 27.7861 19.512C28.0182 18.9382 28.3012 18.3863 28.6318 17.863Z" fill="black"/>
</g>
</g>
<g style="mix-blend-mode:overlay" opacity="0.3">
<g style="mix-blend-mode:overlay" opacity="0.3">
<path d="M28.0757 17.8058C27.7606 18.3392 27.4946 18.9002 27.2809 19.4817C27.0628 20.0618 26.8976 20.6605 26.7873 21.2704C27.102 20.7366 27.3683 20.1756 27.5828 19.5942C27.7999 19.0139 27.9648 18.4154 28.0757 17.8058Z" fill="black"/>
</g>
</g>
<g style="mix-blend-mode:overlay" opacity="0.3">
<path d="M18.9205 26.0131C18.3041 25.7736 17.7119 25.8151 17.5955 26.1079C17.4792 26.4006 17.8905 26.8306 18.5069 27.0701C19.1234 27.3096 19.7148 27.2683 19.8284 26.9777C19.9421 26.687 19.5365 26.2536 18.9205 26.0131Z" fill="black"/>
</g>
<g style="mix-blend-mode:overlay" opacity="0.3">
<path d="M29.407 30.707C29.5204 30.4154 29.1125 29.9843 28.4959 29.7441C27.8794 29.504 27.2877 29.5457 27.1743 29.8373C27.0609 30.1289 27.4688 30.5599 28.0853 30.8001C28.7019 31.0403 29.2936 30.9986 29.407 30.707Z" fill="black"/>
</g>
<g style="mix-blend-mode:overlay" opacity="0.3">
<path d="M24.6749 25.7865C24.2352 25.6152 23.8217 25.6466 23.7417 25.8522C23.6617 26.0579 23.9497 26.3625 24.385 26.5321C24.8204 26.7017 25.2383 26.672 25.3182 26.4664C25.3982 26.2607 25.1096 25.9546 24.6749 25.7865Z" fill="black"/>
</g>
</svg>
