<svg width="54" height="45" viewBox="0 0 54 45" fill="none" xmlns="http://www.w3.org/2000/svg">
<path d="M12.3671 11.0444C12.3671 11.3659 12.0309 11.6245 11.6207 11.6245H7.97372C7.55988 11.6245 7.22363 11.3659 7.22363 11.0444V6.31474C7.22363 5.99327 7.55988 5.73462 7.97372 5.73462H11.6207C12.0346 5.73462 12.3671 5.99327 12.3671 6.31474V11.0444Z" fill="#231F20"/>
<path d="M7.26465 44.1483C5.41344 44.1483 3.54745 43.4351 2.13225 42.0199C0.717048 40.6048 0.00390625 38.7388 0.00390625 36.8875V15.0055C0.00390625 13.1543 0.717048 11.2846 2.13225 9.86944C3.54375 8.45794 5.41344 7.7411 7.26465 7.7411L13.3689 7.74479C13.5573 7.7411 13.731 7.69306 13.9009 7.57852C14.0672 7.46767 14.1781 7.32356 14.252 7.1462L15.9739 2.84148C16.2953 2.03596 16.8607 1.30065 17.6366 0.775958C18.4126 0.251262 19.3068 0 20.1751 0H33.1077C33.9761 0 34.8703 0.251262 35.6462 0.775958C36.4222 1.30065 36.9875 2.03966 37.309 2.84148L39.0346 7.15359C39.1048 7.32726 39.2156 7.47136 39.3819 7.58221C39.5482 7.69676 39.7255 7.74479 39.914 7.74849H46.0145C47.8657 7.74479 49.7354 8.45794 51.1506 9.87314L49.8869 11.1405L51.1506 9.87314C52.5621 11.2846 53.2789 13.1506 53.2752 15.0055V36.8875C53.2789 38.7425 52.5584 40.6084 51.1506 42.0199C49.7354 43.4351 47.8657 44.1483 46.0145 44.1483H7.26465Z" fill="url(#paint0_radial_122_986)"/>
<path d="M7.26465 44.1483C5.41344 44.1483 3.54745 43.4351 2.13225 42.0199C0.717048 40.6048 0.00390625 38.7388 0.00390625 36.8875V15.0055C0.00390625 13.1543 0.717048 11.2846 2.13225 9.86944C3.54375 8.45794 5.41344 7.7411 7.26465 7.7411L13.3689 7.74479C13.5573 7.7411 13.731 7.69306 13.9009 7.57852C14.0672 7.46767 14.1781 7.32356 14.252 7.1462L15.9739 2.84148C16.2953 2.03596 16.8607 1.30065 17.6366 0.775958C18.4126 0.251262 19.3068 0 20.1751 0H33.1077C33.9761 0 34.8703 0.251262 35.6462 0.775958C36.4222 1.30065 36.9875 2.03966 37.309 2.84148L39.0346 7.15359C39.1048 7.32726 39.2156 7.47136 39.3819 7.58221C39.5482 7.69676 39.7255 7.74479 39.914 7.74849H46.0145C47.8657 7.74479 49.7354 8.45794 51.1506 9.87314L49.8869 11.1405L51.1506 9.87314C52.5621 11.2846 53.2789 13.1506 53.2752 15.0055V36.8875C53.2789 38.7425 52.5584 40.6084 51.1506 42.0199C49.7354 43.4351 47.8657 44.1483 46.0145 44.1483H7.26465Z" fill="url(#paint1_radial_122_986)"/>
<g opacity="0.1">
<path opacity="0.1" d="M7.26444 9.98399L13.3686 9.98768C13.5571 9.98399 13.7308 9.93595 13.9007 9.82141C14.067 9.70686 14.1779 9.56645 14.2518 9.38909L15.9773 5.07698C16.2988 4.27146 16.8641 3.53615 17.6401 3.01145C18.4161 2.48676 19.3103 2.2355 20.1786 2.2355H33.1112C33.9795 2.2355 34.8737 2.48676 35.6497 3.01145C36.4257 3.53615 36.991 4.27516 37.3125 5.07698L39.0381 9.38909C39.1083 9.56275 39.2191 9.70686 39.3854 9.81771C39.5517 9.93226 39.729 9.98029 39.9175 9.98399H46.018C47.3667 9.98029 48.7227 10.3646 49.9088 11.1147L51.1541 9.86575C49.7389 8.45055 47.8692 7.73741 46.018 7.7411H39.9175C39.729 7.73741 39.548 7.68937 39.3854 7.57482C39.2191 7.46397 39.1083 7.31617 39.0381 7.1462L37.3088 2.84148C36.9836 2.03966 36.422 1.30065 35.646 0.775958C34.8701 0.251262 33.9759 0 33.1075 0H20.1749C19.3066 0 18.4124 0.251262 17.6364 0.775958C16.8604 1.30065 16.2951 2.03596 15.9736 2.84148L14.2481 7.15359C14.1779 7.33095 14.0633 7.47136 13.897 7.58591C13.7308 7.70046 13.5534 7.74849 13.3649 7.75219L7.26075 7.74849C5.40953 7.74849 3.54354 8.46533 2.12834 9.87683C0.713142 11.292 0 13.1617 0 15.0129V17.2521C0 15.4009 0.713142 13.5312 2.12834 12.116C3.54723 10.7008 5.41323 9.98399 7.26444 9.98399Z" fill="white"/>
<path opacity="0.1" d="M51.1504 9.87317L49.9052 11.1184C50.3486 11.3992 50.7661 11.7281 51.1504 12.1087L49.8867 13.3761L51.1504 12.1087C52.5619 13.5202 53.2788 15.3862 53.2751 17.2411V15.0019C53.2788 13.1507 52.5619 11.2847 51.1504 9.87317Z" fill="white"/>
</g>
<path d="M47.5255 16.2138C47.5255 16.6277 47.1892 16.9602 46.7754 16.9602H42.0975C41.6836 16.9602 41.3511 16.6277 41.3511 16.2138V13.5017C41.3511 13.0878 41.6873 12.7516 42.0975 12.7516H46.7754C47.1892 12.7516 47.5255 13.0878 47.5255 13.5017V16.2138Z" fill="url(#paint2_radial_122_986)"/>
<path d="M9.57405 17.5404H0.00390625V35.0512H9.57405V17.5404Z" fill="url(#paint3_linear_122_986)"/>
<path d="M14.5917 14.2111C14.5917 15.146 13.8342 15.9035 12.8994 15.9035C11.9645 15.9035 11.207 15.146 11.207 14.2111C11.207 13.2763 11.9645 12.5188 12.8994 12.5188C13.8342 12.5151 14.5917 13.2763 14.5917 14.2111Z" fill="url(#paint4_radial_122_986)"/>
<path opacity="0.2" d="M11.3105 13.6273C11.8648 14.0523 13.2911 14.9132 14.4957 13.6532C14.2666 12.9918 13.6384 12.5151 12.8957 12.5151C12.1678 12.5151 11.547 12.9807 11.3105 13.6273Z" fill="white"/>
<path d="M12.8662 25.1632C12.8699 17.5441 19.0443 11.366 26.6672 11.366C34.2863 11.366 40.4607 17.5441 40.4644 25.1632C40.4607 32.7861 34.2863 38.9605 26.6672 38.9642C19.048 38.9568 12.8699 32.7824 12.8662 25.1632Z" fill="url(#paint5_linear_122_986)"/>
<path d="M15.061 25.1632C15.061 18.7523 20.2563 13.5571 26.6671 13.5571C33.078 13.5571 38.2696 18.7523 38.2732 25.1632C38.2696 31.5741 33.078 36.7693 26.6671 36.7693C20.2563 36.7656 15.061 31.5741 15.061 25.1632Z" fill="url(#paint6_linear_122_986)"/>
<path opacity="0.2" d="M38.2292 26.1609C38.2588 25.8321 38.2735 25.4995 38.2735 25.1596C38.2698 18.7487 33.0783 13.5535 26.6674 13.5535C20.2565 13.5535 15.0613 18.7487 15.0613 25.1596H15.0576C15.0576 25.481 15.0724 25.7951 15.0983 26.1092C20.3194 27.4838 29.8156 29.1465 38.2292 26.1609Z" fill="white"/>
<path d="M26.6672 29.5751C29.1039 29.5751 31.0791 27.5998 31.0791 25.1632C31.0791 22.7266 29.1039 20.7513 26.6672 20.7513C24.2306 20.7513 22.2554 22.7266 22.2554 25.1632C22.2554 27.5998 24.2306 29.5751 26.6672 29.5751Z" fill="url(#paint7_radial_122_986)"/>
<path opacity="0.2" d="M26.667 32.2872C22.7392 32.2872 19.543 29.091 19.543 25.1632C19.543 21.2354 22.7392 18.0392 26.667 18.0392C30.5948 18.0392 33.791 21.2354 33.791 25.1632C33.791 29.091 30.5948 32.2872 26.667 32.2872ZM26.667 18.3791C22.9276 18.3791 19.8829 21.4238 19.8829 25.1632C19.8829 28.9026 22.9276 31.9473 26.667 31.9473C30.4064 31.9473 33.4511 28.9026 33.4511 25.1632C33.4511 21.4238 30.4064 18.3791 26.667 18.3791Z" fill="white"/>
<path opacity="0.2" d="M33.3256 18.6969C33.3256 21.1652 30.4102 23.1679 26.8112 23.1679C23.2123 23.1679 20.2969 21.1652 20.2969 18.6969C20.2969 16.2287 23.2123 14.226 26.8112 14.226C30.4102 14.226 33.3256 16.2287 33.3256 18.6969Z" fill="white"/>
<path d="M18.124 8.15497H35.1212L34.1346 2.49048H19.1106L18.124 8.15497Z" fill="url(#paint8_radial_122_986)"/>
<defs>
<radialGradient id="paint0_radial_122_986" cx="0" cy="0" r="1" gradientUnits="userSpaceOnUse" gradientTransform="translate(26.6407 22.073) scale(24.4628)">
<stop stop-color="#4D4D4D"/>
<stop offset="1"/>
</radialGradient>
<radialGradient id="paint1_radial_122_986" cx="0" cy="0" r="1" gradientUnits="userSpaceOnUse" gradientTransform="translate(27.6589 16.3717) scale(33.3513)">
<stop stop-color="#4D4D4D"/>
<stop offset="0.1976" stop-color="#464646"/>
<stop offset="0.4748" stop-color="#343434"/>
<stop offset="0.7976" stop-color="#161616"/>
<stop offset="1"/>
</radialGradient>
<radialGradient id="paint2_radial_122_986" cx="0" cy="0" r="1" gradientUnits="userSpaceOnUse" gradientTransform="translate(44.4372 14.8562) scale(2.64154)">
<stop stop-color="white"/>
<stop offset="0.114" stop-color="#EEEDED"/>
<stop offset="0.531" stop-color="#B3B2B2"/>
<stop offset="0.8381" stop-color="#8E8C8C"/>
<stop offset="1" stop-color="#807E7E"/>
</radialGradient>
<linearGradient id="paint3_linear_122_986" x1="9.27039" y1="26.2947" x2="-0.918116" y2="26.2947" gradientUnits="userSpaceOnUse">
<stop stop-color="white"/>
<stop offset="0.4091" stop-color="#FDFDFD"/>
<stop offset="0.5941" stop-color="#F6F6F6"/>
<stop offset="0.734" stop-color="#E9E9E9"/>
<stop offset="0.8511" stop-color="#D7D7D7"/>
<stop offset="0.9531" stop-color="#C0C0C0"/>
<stop offset="1" stop-color="#B2B2B2"/>
</linearGradient>
<radialGradient id="paint4_radial_122_986" cx="0" cy="0" r="1" gradientUnits="userSpaceOnUse" gradientTransform="translate(12.8988 14.21) scale(2.12413)">
<stop stop-color="#BB0405"/>
<stop offset="0.1957" stop-color="#B60405"/>
<stop offset="0.439" stop-color="#A60304"/>
<stop offset="0.7074" stop-color="#8D0203"/>
<stop offset="0.9923" stop-color="#6A0102"/>
<stop offset="1" stop-color="#690102"/>
</radialGradient>
<linearGradient id="paint5_linear_122_986" x1="26.6665" y1="11.0614" x2="26.6665" y2="37.3743" gradientUnits="userSpaceOnUse">
<stop stop-color="white"/>
<stop offset="0.2073" stop-color="#F7F7F8"/>
<stop offset="0.527" stop-color="#E2E2E3"/>
<stop offset="0.9172" stop-color="#BEC0C2"/>
<stop offset="1" stop-color="#B6B8BA"/>
</linearGradient>
<linearGradient id="paint6_linear_122_986" x1="26.6669" y1="12.858" x2="26.6669" y2="40.7902" gradientUnits="userSpaceOnUse">
<stop stop-color="#13C0FF"/>
<stop offset="0.1971" stop-color="#0DACF7"/>
<stop offset="0.4903" stop-color="#0694ED"/>
<stop offset="0.762" stop-color="#0185E7"/>
<stop offset="0.9892" stop-color="#0080E5"/>
</linearGradient>
<radialGradient id="paint7_radial_122_986" cx="0" cy="0" r="1" gradientUnits="userSpaceOnUse" gradientTransform="translate(26.6666 25.1631) scale(4.41014)">
<stop/>
<stop offset="0.3181" stop-color="#030303"/>
<stop offset="0.5212" stop-color="#0B0B0B"/>
<stop offset="0.6921" stop-color="#1A1A1A"/>
<stop offset="0.8451" stop-color="#2F2F2F"/>
<stop offset="0.9849" stop-color="#4A4A4A"/>
<stop offset="1" stop-color="#4D4D4D"/>
</radialGradient>
<radialGradient id="paint8_radial_122_986" cx="0" cy="0" r="1" gradientUnits="userSpaceOnUse" gradientTransform="translate(26.6223 5.32402) scale(10.1005)">
<stop stop-color="white"/>
<stop offset="0.1397" stop-color="#F6F6F6"/>
<stop offset="0.3654" stop-color="#DFDEDE"/>
<stop offset="0.649" stop-color="#B9B8B8"/>
<stop offset="0.9767" stop-color="#848282"/>
<stop offset="1" stop-color="#807E7E"/>
</radialGradient>
</defs>
</svg>
