<svg width="50" height="42" viewBox="0 0 50 42" fill="none" xmlns="http://www.w3.org/2000/svg">
<g clip-path="url(#clip0_122_936)">
<path d="M17.5325 0H8.56555C7.4655 0 6.57373 0.89177 6.57373 1.99182V3.98736C6.57373 5.08742 7.4655 5.97919 8.56555 5.97919H17.5325C18.6325 5.97919 19.5243 5.08742 19.5243 3.98736V1.99182C19.5243 0.89177 18.6325 0 17.5325 0Z" fill="url(#paint0_linear_122_936)"/>
<path d="M44.0207 2.96179H6.2912C2.98899 2.96179 0.312012 5.63877 0.312012 8.94098V35.0911C0.312012 38.3933 2.98899 41.0703 6.2912 41.0703H44.0207C47.3229 41.0703 49.9999 38.3933 49.9999 35.0911V8.94098C49.9999 5.63877 47.3229 2.96179 44.0207 2.96179Z" fill="url(#paint1_radial_122_936)"/>
<path d="M46.1314 6.64441H40.0259V11.1483H46.1314V6.64441Z" fill="url(#paint2_radial_122_936)"/>
<path d="M6.30954 9.59863H-0.0078125V10.9996H6.30954C6.47937 10.9996 6.64752 11.0331 6.80442 11.098C6.96132 11.163 7.10388 11.2583 7.22397 11.3784C7.34405 11.4985 7.43931 11.641 7.5043 11.7979C7.56929 11.9548 7.60273 12.123 7.60273 12.2928V31.0553C7.60273 31.2252 7.56929 31.3933 7.5043 31.5502C7.43931 31.7071 7.34405 31.8497 7.22397 31.9698C7.10388 32.0899 6.96132 32.1851 6.80442 32.2501C6.64752 32.3151 6.47937 32.3485 6.30954 32.3485H-0.0078125V33.7495H6.30954C7.02378 33.7485 7.70847 33.4644 8.21352 32.9593C8.71856 32.4543 9.00272 31.7696 9.00371 31.0553V12.2928C9.00272 11.5786 8.71856 10.8939 8.21352 10.3888C7.70847 9.88378 7.02378 9.59962 6.30954 9.59863Z" fill="url(#paint3_linear_122_936)"/>
<path d="M15.7932 10.7394C15.7939 11.0771 15.6944 11.4074 15.5073 11.6885C15.3202 11.9695 15.0538 12.1887 14.742 12.3183C14.4302 12.4479 14.0869 12.4819 13.7557 12.4163C13.4245 12.3506 13.1202 12.188 12.8814 11.9493C12.6427 11.7105 12.4801 11.4062 12.4144 11.075C12.3487 10.7438 12.3828 10.4005 12.5124 10.0887C12.6419 9.77688 12.8611 9.51053 13.1422 9.32339C13.4233 9.13625 13.7536 9.03674 14.0912 9.03748C14.5426 9.03748 14.9755 9.21679 15.2947 9.53597C15.6139 9.85515 15.7932 10.2881 15.7932 10.7394Z" fill="url(#paint4_radial_122_936)"/>
<path opacity="0.2" d="M12.5083 10.1525C13.0657 10.5835 14.4964 11.4457 15.7116 10.1785C15.5957 9.84771 15.3806 9.56077 15.0956 9.35685C14.8106 9.15293 14.4695 9.04196 14.1191 9.03912C13.7686 9.03627 13.4258 9.14168 13.1375 9.34095C12.8492 9.54022 12.6295 9.82363 12.5083 10.1525Z" fill="white"/>
<path d="M13.1404 22.7648C13.14 20.9425 13.4985 19.1379 14.1957 17.4541C14.8928 15.7704 15.9149 14.2406 17.2035 12.952C18.4921 11.6634 20.022 10.6413 21.7057 9.94416C23.3894 9.247 25.194 8.88843 27.0163 8.88892C30.6964 8.88892 34.2258 10.3508 36.828 12.9531C39.4303 15.5553 40.8922 19.0847 40.8922 22.7648C40.8902 26.4443 39.4277 29.9725 36.8259 32.5744C34.2241 35.1762 30.6958 36.6387 27.0163 36.6407C23.3362 36.6397 19.807 35.1776 17.2044 32.5757C14.6017 29.9738 13.1387 26.445 13.1367 22.7648H13.1404Z" fill="url(#paint5_linear_122_936)"/>
<path d="M15.3438 22.7648C15.3438 21.2319 15.6457 19.7141 16.2322 18.298C16.8188 16.8819 17.6786 15.5951 18.7625 14.5112C19.8463 13.4274 21.1331 12.5676 22.5492 11.981C23.9654 11.3944 25.4832 11.0925 27.016 11.0925C30.1114 11.0935 33.0797 12.3236 35.2684 14.5123C37.4572 16.7011 38.6872 19.6694 38.6882 22.7648C38.6892 25.8611 37.4606 28.8312 35.2726 31.022C33.0845 33.2129 30.1161 34.4452 27.0197 34.4482C23.924 34.4472 20.9553 33.2172 18.766 31.0286C16.5766 28.8399 15.3457 25.8716 15.3438 22.7759V22.7648Z" fill="url(#paint6_linear_122_936)"/>
<path opacity="0.2" d="M38.6438 23.7681C38.6735 23.4374 38.6921 23.1029 38.6921 22.7648C38.6921 19.6691 37.4624 16.7002 35.2734 14.5112C33.0844 12.3223 30.1156 11.0925 27.0199 11.0925C23.9242 11.0925 20.9553 12.3223 18.7664 14.5112C16.5774 16.7002 15.3477 19.6691 15.3477 22.7648C15.3477 23.0844 15.3662 23.4039 15.3885 23.7198C20.6356 25.0985 30.1823 26.7707 38.6438 23.7681Z" fill="white"/>
<path d="M31.4605 22.7648C31.4604 23.6414 31.2008 24.4984 30.7142 25.2276C30.2276 25.9567 29.536 26.5254 28.7265 26.8619C27.9171 27.1984 27.0261 27.2875 26.166 27.1181C25.3059 26.9487 24.5153 26.5284 23.8939 25.9101C23.2725 25.2918 22.8481 24.5033 22.6744 23.644C22.5007 22.7848 22.5854 21.8934 22.9178 21.0822C23.2502 20.2711 23.8154 19.5766 24.5422 19.0864C25.2689 18.5962 26.1246 18.3322 27.0011 18.3278C27.5857 18.3249 28.1651 18.4375 28.706 18.6591C29.2469 18.8808 29.7386 19.2072 30.153 19.6195C30.5674 20.0318 30.8962 20.5219 31.1206 21.0617C31.345 21.6015 31.4605 22.1803 31.4605 22.7648Z" fill="url(#paint7_radial_122_936)"/>
<path opacity="0.2" d="M27.0011 29.9293C25.584 29.9293 24.1988 29.5091 23.0206 28.7219C21.8424 27.9346 20.9241 26.8157 20.3818 25.5065C19.8395 24.1973 19.6976 22.7568 19.9741 21.367C20.2505 19.9772 20.9329 18.7006 21.9349 17.6986C22.9369 16.6966 24.2135 16.0142 25.6033 15.7378C26.9931 15.4613 28.4337 15.6032 29.7428 16.1455C31.052 16.6877 32.171 17.6061 32.9582 18.7843C33.7455 19.9625 34.1657 21.3477 34.1657 22.7647C34.1637 24.6643 33.4082 26.4855 32.065 27.8287C30.7218 29.1719 28.9006 29.9274 27.0011 29.9293ZM27.0011 15.942C25.6516 15.942 24.3325 16.3421 23.2105 17.0918C22.0886 17.8415 21.2141 18.9071 20.6977 20.1538C20.1813 21.4005 20.0461 22.7723 20.3094 24.0958C20.5727 25.4193 21.2225 26.635 22.1766 27.5891C23.1308 28.5433 24.3465 29.1931 25.67 29.4564C26.9935 29.7196 28.3653 29.5845 29.612 29.0681C30.8587 28.5517 31.9243 27.6772 32.674 26.5552C33.4236 25.4332 33.8238 24.1141 33.8238 22.7647C33.8218 20.9558 33.1024 19.2216 31.8233 17.9425C30.5442 16.6634 28.81 15.9439 27.0011 15.942Z" fill="white"/>
<path opacity="0.2" d="M33.7123 16.2616C33.7123 18.744 30.7803 20.7581 27.1608 20.7581C23.5414 20.7581 20.6094 18.744 20.6094 16.2616C20.6094 13.7793 23.5451 11.78 27.1608 11.78C30.7766 11.78 33.7123 13.7793 33.7123 16.2616Z" fill="white"/>
</g>
<defs>
<linearGradient id="paint0_linear_122_936" x1="13.0509" y1="-0.163508" x2="13.0509" y2="3.58603" gradientUnits="userSpaceOnUse">
<stop stop-color="#404041"/>
<stop offset="0.33" stop-color="#262627"/>
<stop offset="0.75" stop-color="#0A0A0A"/>
<stop offset="1"/>
</linearGradient>
<radialGradient id="paint1_radial_122_936" cx="0" cy="0" r="1" gradientUnits="userSpaceOnUse" gradientTransform="translate(25.652 14.3367) scale(30.8064)">
<stop stop-color="#4D4D4D"/>
<stop offset="0.2" stop-color="#464646"/>
<stop offset="0.47" stop-color="#343434"/>
<stop offset="0.8" stop-color="#161616"/>
<stop offset="1"/>
</radialGradient>
<radialGradient id="paint2_radial_122_936" cx="0" cy="0" r="1" gradientUnits="userSpaceOnUse" gradientTransform="translate(43.0768 8.89636) scale(5.45151)">
<stop stop-color="white"/>
<stop offset="0.11" stop-color="#EEEDED"/>
<stop offset="0.53" stop-color="#B3B2B2"/>
<stop offset="0.84" stop-color="#8E8C8C"/>
<stop offset="1" stop-color="#807E7E"/>
</radialGradient>
<linearGradient id="paint3_linear_122_936" x1="-0.00038032" y1="21.6722" x2="9.00371" y2="21.6722" gradientUnits="userSpaceOnUse">
<stop offset="0.01" stop-color="#808080"/>
<stop offset="0.11" stop-color="#A0A0A0"/>
<stop offset="0.22" stop-color="#BEBFBF"/>
<stop offset="0.34" stop-color="#D4D5D6"/>
<stop offset="0.44" stop-color="#E1E2E3"/>
<stop offset="0.54" stop-color="#E6E7E8"/>
<stop offset="0.61" stop-color="#DEDFE0"/>
<stop offset="0.73" stop-color="#C9CACB"/>
<stop offset="0.87" stop-color="#A7A7A8"/>
<stop offset="1" stop-color="#808080"/>
</linearGradient>
<radialGradient id="paint4_radial_122_936" cx="0" cy="0" r="1" gradientUnits="userSpaceOnUse" gradientTransform="translate(14.0912 10.7394) scale(2.13675)">
<stop stop-color="#BB0405"/>
<stop offset="0.2" stop-color="#B60405"/>
<stop offset="0.44" stop-color="#A60304"/>
<stop offset="0.71" stop-color="#8D0203"/>
<stop offset="0.99" stop-color="#6A0102"/>
<stop offset="1" stop-color="#690102"/>
</radialGradient>
<linearGradient id="paint5_linear_122_936" x1="27.0163" y1="8.58048" x2="27.0163" y2="35.0465" gradientUnits="userSpaceOnUse">
<stop stop-color="white"/>
<stop offset="0.21" stop-color="#F7F7F8"/>
<stop offset="0.53" stop-color="#E2E2E3"/>
<stop offset="0.92" stop-color="#BEC0C2"/>
<stop offset="1" stop-color="#B6B8BA"/>
</linearGradient>
<linearGradient id="paint6_linear_122_936" x1="27.016" y1="10.3902" x2="27.016" y2="38.4801" gradientUnits="userSpaceOnUse">
<stop stop-color="#13C0FF"/>
<stop offset="0.2" stop-color="#0DACF7"/>
<stop offset="0.49" stop-color="#0694ED"/>
<stop offset="0.76" stop-color="#0185E7"/>
<stop offset="0.99" stop-color="#0080E5"/>
</linearGradient>
<radialGradient id="paint7_radial_122_936" cx="0" cy="0" r="1" gradientUnits="userSpaceOnUse" gradientTransform="translate(27.016 22.7648) scale(4.43701)">
<stop/>
<stop offset="0.32" stop-color="#030303"/>
<stop offset="0.52" stop-color="#0B0B0B"/>
<stop offset="0.69" stop-color="#1A1A1A"/>
<stop offset="0.85" stop-color="#2F2F2F"/>
<stop offset="0.98" stop-color="#4A4A4A"/>
<stop offset="1" stop-color="#4D4D4D"/>
</radialGradient>
<clipPath id="clip0_122_936">
<rect width="50" height="41.0702" fill="white"/>
</clipPath>
</defs>
</svg>
