<svg width="38" height="53" viewBox="0 0 38 53" fill="none" xmlns="http://www.w3.org/2000/svg">
<g clip-path="url(#clip0_122_784)">
<path d="M32.467 41.2156C32.467 43.7398 30.4202 45.7865 27.896 45.7865H9.18288C6.65867 45.7865 4.61193 43.7398 4.61193 41.2156L3.46826 23.213C3.46826 20.6888 5.51501 18.6421 8.03921 18.6421H29.3247C31.8489 18.6421 33.8956 20.6888 33.8956 23.213L32.467 41.2156Z" fill="url(#paint0_linear_122_784)"/>
<path d="M36.9678 20.9294C36.9678 23.4536 34.9211 25.5003 32.3969 25.5003H4.96744C2.44323 25.5003 0.396484 23.4536 0.396484 20.9294V5.49918C0.396484 2.97497 2.44323 0.928223 4.96744 0.928223H32.3969C34.9211 0.928223 36.9678 2.97497 36.9678 5.49918V20.9294Z" fill="url(#paint1_radial_122_784)"/>
<path d="M4.96739 22.0693C4.33819 22.0693 3.82373 21.5548 3.82373 20.9256V5.49913C3.82373 4.86993 4.33819 4.35547 4.96739 4.35547H32.3968C33.026 4.35547 33.5405 4.86993 33.5405 5.49913V20.9293C33.5405 21.5585 33.0297 22.073 32.3968 22.073H4.96739V22.0693Z" fill="url(#paint2_radial_122_784)"/>
<path d="M15.8711 25.4893H13.395V30.2527H15.8711V25.4893Z" fill="url(#paint3_linear_122_784)"/>
<path d="M23.9693 25.4893H21.4932V30.2527H23.9693V25.4893Z" fill="url(#paint4_linear_122_784)"/>
<path d="M19.8721 25.4893H17.396V27.8691H19.8721V25.4893Z" fill="url(#paint5_linear_122_784)"/>
<path d="M26.016 40.5012H11.1113V45.7865H26.016V40.5012Z" fill="url(#paint6_linear_122_784)"/>
<path d="M24.0875 41.7855H12.625V51.7861H24.0875V41.7855Z" fill="black"/>
<path opacity="0.4" d="M32.3968 4.35547H4.96739C4.33819 4.35547 3.82373 4.86993 3.82373 5.49913V12.3907C7.88392 13.9711 18.1584 16.6841 33.5368 12.0132V5.49913C33.5405 4.86993 33.026 4.35547 32.3968 4.35547Z" fill="white"/>
</g>
<defs>
<linearGradient id="paint0_linear_122_784" x1="18.6824" y1="45.9232" x2="18.6824" y2="25.5634" gradientUnits="userSpaceOnUse">
<stop stop-color="#404041"/>
<stop offset="0.332" stop-color="#262627"/>
<stop offset="0.7548" stop-color="#0A0A0A"/>
<stop offset="1"/>
</linearGradient>
<radialGradient id="paint1_radial_122_784" cx="0" cy="0" r="1" gradientUnits="userSpaceOnUse" gradientTransform="translate(18.6826 13.2141) scale(25.7626)">
<stop stop-color="#4D4D4D"/>
<stop offset="0.1976" stop-color="#464646"/>
<stop offset="0.4748" stop-color="#343434"/>
<stop offset="0.7976" stop-color="#161616"/>
<stop offset="1"/>
</radialGradient>
<radialGradient id="paint2_radial_122_784" cx="0" cy="0" r="1" gradientUnits="userSpaceOnUse" gradientTransform="translate(18.6822 13.214) scale(17.2867)">
<stop stop-color="white"/>
<stop offset="0.222" stop-color="#EEF0F2"/>
<stop offset="0.6603" stop-color="#C2CBD2"/>
<stop offset="1" stop-color="#9BAAB5"/>
</radialGradient>
<linearGradient id="paint3_linear_122_784" x1="14.6352" y1="30.1932" x2="14.6352" y2="25.1658" gradientUnits="userSpaceOnUse">
<stop offset="0.2649" stop-color="#FFCC00"/>
<stop offset="0.4032" stop-color="#FDC800"/>
<stop offset="0.5425" stop-color="#F8BC00"/>
<stop offset="0.6823" stop-color="#F0A800"/>
<stop offset="0.8225" stop-color="#E48B00"/>
<stop offset="0.9617" stop-color="#D66700"/>
<stop offset="1" stop-color="#D15C00"/>
</linearGradient>
<linearGradient id="paint4_linear_122_784" x1="22.7304" y1="30.1932" x2="22.7304" y2="25.1658" gradientUnits="userSpaceOnUse">
<stop offset="0.2649" stop-color="#FFCC00"/>
<stop offset="0.4032" stop-color="#FDC800"/>
<stop offset="0.5425" stop-color="#F8BC00"/>
<stop offset="0.6823" stop-color="#F0A800"/>
<stop offset="0.8225" stop-color="#E48B00"/>
<stop offset="0.9617" stop-color="#D66700"/>
<stop offset="1" stop-color="#D15C00"/>
</linearGradient>
<linearGradient id="paint5_linear_122_784" x1="18.6349" y1="30.1932" x2="18.6349" y2="25.1659" gradientUnits="userSpaceOnUse">
<stop offset="0.2649" stop-color="#FFCC00"/>
<stop offset="0.4032" stop-color="#FDC800"/>
<stop offset="0.5425" stop-color="#F8BC00"/>
<stop offset="0.6823" stop-color="#F0A800"/>
<stop offset="0.8225" stop-color="#E48B00"/>
<stop offset="0.9617" stop-color="#D66700"/>
<stop offset="1" stop-color="#D15C00"/>
</linearGradient>
<linearGradient id="paint6_linear_122_784" x1="18.5636" y1="45.9232" x2="18.5636" y2="40.7615" gradientUnits="userSpaceOnUse">
<stop stop-color="#8BC53F"/>
<stop offset="0.2461" stop-color="#82BA40"/>
<stop offset="0.6721" stop-color="#6A9E41"/>
<stop offset="1" stop-color="#548443"/>
</linearGradient>
<clipPath id="clip0_122_784">
<rect width="36.6368" height="51.0987" fill="white" transform="translate(0.506836 0.928223)"/>
</clipPath>
</defs>
</svg>
