<svg width="37" height="30" viewBox="0 0 37 30" fill="none" xmlns="http://www.w3.org/2000/svg">
<path d="M13.5485 27.7919C9.14525 30.1628 8.67952 29.4149 8.04443 29.062L32.8127 2.60022C33.3772 2.88248 35.1413 2.81191 36.4115 3.87039C37.751 4.98663 36.4821 6.55185 35.7764 7.46919C30.9074 12.4793 17.9517 25.4209 13.5485 27.7919Z" fill="black"/>
<path d="M6.98592 28.988L1.27017 25.3892C0.846778 25.2481 0 24.8388 0 24.3308C0 23.8227 1.27017 22.5666 1.90525 22.0021C10.0202 15.1573 25.107 2.7696 26.4618 1.75347C27.8167 0.737336 29.2138 -0.575168 30.6957 0.271601C32.3187 0.977249 35.0143 2.56856 36.1998 3.58469C37.0465 4.3105 36.1998 4.50549 35.1413 5.98735C26.4618 10.4329 10.1613 28.0989 9.31456 28.7763C8.46778 29.4538 7.40931 29.1997 6.98592 28.988Z" fill="url(#paint0_linear_122_851)"/>
<path d="M1.27002 25.2375C1.27002 24.7294 2.54019 23.4733 3.17527 22.9088C11.2902 16.064 26.377 3.67629 27.7318 2.66016C28.7176 1.92083 30.6956 0.694971 31.1189 0.483276" stroke="#FFDC2D" stroke-width="0.5"/>
<path d="M7.19775 29.048C7.19775 28.5399 8.46792 27.2838 9.103 26.7193C17.218 19.8745 31.8813 6.64001 33.2362 5.62388C34.2219 4.88455 35.7765 3.87039 36.1999 3.65869" stroke="#FFDC2D" stroke-width="0.5"/>
<path d="M3.5989 25.0398C3.76826 24.5318 4.37511 23.9813 4.65737 23.7697L6.77432 24.8281C6.63319 25.0398 6.26625 25.6326 5.92754 26.31C5.58883 26.9874 5.92754 28.2858 6.13924 28.8503C5.22189 28.4269 3.38721 27.5378 3.38721 27.3685C3.38721 27.1568 3.38721 25.6749 3.5989 25.0398Z" fill="black"/>
<path d="M4.06484 21.625C3.8614 22.238 3.81055 23.7535 3.81055 24.4346L7.87917 26.7333L13.9821 25.2008C14.9145 24.2643 16.9318 22.2891 17.5421 21.8804C18.1524 21.4718 17.4574 20.6885 17.0336 20.348C14.745 19.0709 10.0661 16.4657 9.65919 16.2614C9.25233 16.0571 8.64203 16.1762 8.38774 16.2614L5.08199 19.0709C4.8277 19.6669 4.26827 21.0121 4.06484 21.625Z" fill="black"/>
<path d="M3.6415 21.2017C3.43806 21.8147 3.38721 23.3301 3.38721 24.0112L7.45583 26.3099L13.5588 24.7775C14.4911 23.841 16.5085 21.8658 17.1188 21.4571C17.7291 21.0484 17.034 20.2652 16.6102 19.9246C14.3216 18.6476 9.64271 16.0424 9.23585 15.838C8.82899 15.6337 8.21869 15.7529 7.9644 15.838L4.65865 18.6476C4.40436 19.2435 3.84493 20.5887 3.6415 21.2017Z" fill="url(#paint1_linear_122_851)"/>
<path d="M6.11657 19.0418L4.65723 23.2404L8.06236 25.4632L13.17 23.4874L16.0887 20.5237L9.03525 16.572L6.11657 19.0418Z" stroke="#201F1D" stroke-width="0.211694" stroke-linejoin="bevel"/>
<path d="M6.13916 19.1123L13.1251 23.3462" stroke="#201F1D" stroke-width="0.211694" stroke-linejoin="bevel"/>
<path d="M5.08057 23.5155L9.31446 21.2292L7.57109 25.0397" stroke="#201F1D" stroke-width="0.211694" stroke-linejoin="bevel"/>
<path d="M12.5448 18.689H6.5625L13.9718 22.7112L12.5448 18.689Z" stroke="#201F1D" stroke-width="0.211694" stroke-linejoin="bevel"/>
<defs>
<linearGradient id="paint0_linear_122_851" x1="31.7542" y1="0.0599016" x2="10.5847" y2="31.179" gradientUnits="userSpaceOnUse">
<stop offset="0.048381" stop-color="#393939"/>
<stop offset="0.0997709" stop-color="#060606"/>
<stop offset="0.651042" stop-color="#25211F"/>
<stop offset="0.935951" stop-color="#211E1C"/>
</linearGradient>
<linearGradient id="paint1_linear_122_851" x1="8.46788" y1="25.2515" x2="8.46787" y2="14.0317" gradientUnits="userSpaceOnUse">
<stop offset="0.261746" stop-color="#373533"/>
<stop offset="1" stop-color="#4D4A48"/>
</linearGradient>
</defs>
</svg>
