<svg width="15" height="15" viewBox="0 0 15 15" fill="none" xmlns="http://www.w3.org/2000/svg">
<g clip-path="url(#clip0_140_2853)">
<path d="M14.8228 0.177717C14.5862 -0.0589136 14.2025 -0.0589136 13.9659 0.177717L0.177717 13.9658C-0.0589136 14.2025 -0.0589136 14.5861 0.177717 14.8228C0.296018 14.9411 0.451116 15.0002 0.606184 15.0002C0.761252 15.0002 0.916321 14.9411 1.03465 14.8227L14.8228 1.03459C15.0594 0.797991 15.0594 0.414348 14.8228 0.177717Z" fill="#727272"/>
<path d="M14.8225 13.9658L1.03435 0.177717C0.797746 -0.0589135 0.414075 -0.0589135 0.177473 0.177717C-0.0591577 0.414319 -0.0591577 0.797961 0.177473 1.03459L13.9656 14.8227C14.0839 14.9411 14.239 15.0002 14.3941 15.0002C14.5492 15.0002 14.7043 14.9411 14.8225 14.8228C15.0591 14.5861 15.0591 14.2025 14.8225 13.9658Z" fill="#727272"/>
</g>
<defs>
<clipPath id="clip0_140_2853">
<rect width="15" height="15" fill="white"/>
</clipPath>
</defs>
</svg>
