<svg width="18" height="18" viewBox="0 0 18 18" fill="none" xmlns="http://www.w3.org/2000/svg">
<path d="M9.38417 3.01597L9.95417 2.44597C10.1607 2.22434 10.1546 1.87896 9.94039 1.66475C9.72618 1.45054 9.38081 1.44445 9.15917 1.65097L7.65917 3.15097C7.43983 3.37058 7.43983 3.72636 7.65917 3.94597L9.15917 5.44597C9.37879 5.66531 9.73456 5.66531 9.95417 5.44597C10.1735 5.22636 10.1735 4.87058 9.95417 4.65097L9.45917 4.15597C11.9847 4.46881 13.9529 6.49584 14.1913 9.02949C14.4296 11.5631 12.8739 13.9217 10.4511 14.7C8.02817 15.4783 5.38999 14.4671 4.10818 12.2686C2.82637 10.0702 3.24583 7.27611 5.11667 5.55097C5.29797 5.3354 5.29187 5.01896 5.10239 4.81054C4.91292 4.60212 4.5985 4.56598 4.36667 4.72597C2.08531 6.82732 1.58666 10.239 3.17115 12.9054C4.75564 15.5718 7.99057 16.7647 10.9269 15.7655C13.8632 14.7663 15.699 11.8478 15.3282 8.76835C14.9574 5.68893 12.4812 3.2896 9.39167 3.01597H9.38417Z" fill="black"/>
</svg>
